The.Men Who Stare at Goats TS XviD - IMAGiNE
********************************************************************************************************************

Ripper ...........: IMAGiNE IMDB Rating.......:6.9/10
Video Codec.......: XVID Release Date......:13/12/09
Audio Codec.......:MP3 Theatre Date......:06/10/09
Audio Bitrate.....:128 Runtime.......:1h 27mn
Subtitles.........:NIL Language..........:ENGLISH
Resolution...... 704 x 430 IMDb URL..........:http://www.imdb.com/title/tt1234548/


DETAILS:

Video
ID : 0
Format : MPEG-4 Visual
Format profile : AdvancedSimple@L5
Format settings, BVOP : Yes
Format settings, QPel : No
Format settings, GMC : No warppoints
Format settings, Matrix : Custom
Codec ID : XVID
Codec ID/Hint : XviD
Duration : 1h 27mn
Bit rate : 1 744 Kbps
Width : 704 pixels
Height : 430 pixels
Display aspect ratio : 1.637
Frame rate : 25.000 fps
Resolution : 24 bits
Colorimetry : 4:2:0
Scan type : Progressive
Bits/(Pixel*Frame) : 0.231
Stream size : 1.06 GiB (93%)
Writing library : XviD 1.2.1 (UTC 2008-12-04)

Audio
ID : 1
Format : MPEG Audio
Format version : Version 1
Format profile : Layer 3
Format_Settings_Mode : Joint stereo
Codec ID : 55
Codec ID/Hint : MP3
Duration : 1h 27mn
Bit rate mode : Constant
Bit rate : 128 Kbps
Channel(s) : 2 channels
Sampling rate : 44.1 KHz
Resolution : 16 bits
Stream size : 79.9 MiB (7%)
Alignment : Aligned on interleaves
Interleave, duration : 40 ms (1.00 video frame)
Interleave, preload duration : 391 ms

Plot:
A reporter, trying to lose himself in the romance of war after his marriage fails, gets more than he bargains for when he meets a special forces agent who reveals the existence of a secret, psychic military unit whose goal is to end war as we know it. The founder of the unit has gone missing and the trail leads to another psychic soldier who has distorted the mission to serve his own ends

Cast:
George Clooney ... Lyn Cassady

Ewan McGregor ... Bob Wilton

Jeff Bridges ... Bill Django

Kevin Spacey ... Larry Hooper

Stephen Lang ... Brigadier General Dean Hopgood

Robert Patrick ... Todd Nixon

Waleed Zuaiter ... Mahmud Daash

Stephen Root ... Gus Lacey

Glenn Morshower ... Major Holtz

Nick Offerman ... Scotty Mercer

Tim Griffin ... Tim Kootz

Rebecca Mader ... Debora Wilton

Jacob Browne ... Lieutenant Boone

Todd La Tourrette ... Dave

Brad Grunberg ... Ron

Enjoy uploaded this for a friend who uploaded it else where :)
Check outfor more info on the movie :)